<svg xmlns="http://www.w3.org/2000/svg" xmlns:xlink="http://www.w3.org/1999/xlink" version="1.1" id="Layer_1" x="0px" y="0px" width="100px" height="100px" viewBox="0 0 100 100" enable-background="new 0 0 100 100" xml:space="preserve">
<path d="M73.845,100H26.156c0-3.009,2.539-4.057,5.643-4.057h6.471h0.58c4.656,0,8.466-3.811,8.466-8.467  c0,0-0.392-19.224-1.411-25.536c-0.814-5.05-4.764-8.206-7.788-10.05c-10.366-5.81-17.604-18.977-17.604-34.299  c0-6.359,1.25-12.344,3.449-17.592h2.501c-1.773,4.646-2.785,9.854-2.785,15.362c0,19.347,10.875,35.046,26.043,35.237h0.555  c15.172-0.191,26.043-15.891,26.043-35.237c0-5.509-1.009-10.717-2.785-15.362h2.501c2.201,5.248,3.452,11.232,3.452,17.592  c0,15.338-7.253,28.516-17.636,34.316c-3.018,1.848-6.948,4.998-7.759,10.032c-1.019,6.312-1.41,25.536-1.41,25.536  c0,4.656,3.809,8.467,8.465,8.467h0.579h6.475C71.305,95.943,73.845,96.991,73.845,100z M27.997,26.121  C30.651,38.403,39.492,47.431,50,47.431c10.506,0,19.349-9.027,22.003-21.31H27.997z"/>
</svg>